<svg width="136" height="165" fill="none" xmlns="http://www.w3.org/2000/svg"><g clip-path="url(#a)"><path d="M93.1 39.3c8.2 0 15-5.6 17-13l5.4.7a2.2 2.2 0 0 0 .6-4.2l-5.5-.9v-.6s-.5-6.6-1-9.3c-.7-2.7-2.6-3.3-2.6-3.3a111.8 111.8 0 0 0-22.4-2.4c-2.6 0-3.2 1.3-3.2 1.3l-3.1 5-.2.4a17.5 17.5 0 0 0 15 26.3Zm38.4 39.3-26.7-2.2-9.2-21.1s-.5-2.8-6-8.5c-5.6-5.7-16.8-3.4-16.8-3.4S48.8 48 41 49.7c-7.9 1.9-8.2 9.9-8.2 9.9l-.6 4.5-15.2-3a3 3 0 0 0-3.5 2.5l-7.4 38.2a3 3 0 0 0 2.4 3.5l51.2 10h.3-1.3l-9.4-2-3 17.2-23.6 20.4a7.4 7.4 0 0 0 4.6 13.2 7.4 7.4 0 0 0 5.2-2.2s27.8-22 29.6-23.6c1.9-1.5 2.8-3.8 2.8-3.8s4.5-14 5.8-16.9c.8-2 4.9-1 4.9-1l22.9 8.6 7.6 29a7.4 7.4 0 1 0 14.6-2.7c-.9-5-4.6-27-5.6-31.8-1-5.4-4.6-7-4.6-7l-22.7-12.3c-1.3-.7-1-2.7-1-2.7l3.9-14.4 2.8 5.9s1.6 3.3 4 3.4l33.4.8a7.4 7.4 0 0 0 .7-14.8ZM60.1 63.3l-1.8 5.9 10 1.9-20.3-4 .6-2.4L60 63.3Zm-2.3 45.5L12.5 100l6.3-32.4 12.6 2.5-1.7 11.5-.6 4.5v.2a7.4 7.4 0 1 0 14.7 0l3-13.2L64 76.4 58 108.8ZM25 17.5h38a2 2 0 0 0 2-2 2 2 0 0 0-2-2H25a2 2 0 0 0-2 2 2 2 0 0 0 2 2Zm13 6a2 2 0 0 0-2 2 2 2 0 0 0 2 2h23a2 2 0 0 0 2-2 2 2 0 0 0-2-2H38Z" fill="#fff"/><path d="M87.1 33.2c8.1 0 15-5.5 16.9-13l5.5.8h.3a2.2 2.2 0 0 0 .3-4.3l-5.5-.8v-.7s-.5-6.5-1.1-9.2c-.7-2.7-2.6-3.3-2.6-3.3A111.8 111.8 0 0 0 78.6.2c-2.6 0-3.2 1.4-3.2 1.4l-3.1 5-.3.4a17.5 17.5 0 0 0 15.1 26.2Zm38.4 39.3-26.7-2.1-9.3-21.1s-.4-2.8-6-8.5C78 35 66.7 37.4 66.7 37.4S42.8 41.9 35 43.7c-7.9 1.9-8.2 9.9-8.2 9.9l-3 22L23 80v.2a7.4 7.4 0 1 0 14.7 0l4.7-21.5 11.6-1.4-1.8 5.9 9.9 1.9a3 3 0 0 1 2.4 3.5L57 106.8a3 3 0 0 1-3 2.5H54l-1.3-.1-9.4-1.8-3.1 17-23.6 20.4a7.4 7.4 0 0 0 4.7 13.2 7.4 7.4 0 0 0 5.2-2s27.7-22.1 29.6-23.7a11 11 0 0 0 2.7-3.8s4.6-14 5.8-17c.9-2 5-1 5-1l22.8 8.6 7.7 29.1a7.4 7.4 0 1 0 14.6-2.7l-5.6-31.8c-1.1-5.4-4.6-7-4.6-7L81.8 94.4c-1.4-.8-1-2.8-1-2.8l3.9-14.3 2.7 5.9s1.7 3.2 4.1 3.4l33.4.8a7.4 7.4 0 0 0 .6-14.9Z" fill="#3A3A3A"/><path d="M54 109.6h.2a3 3 0 0 0 3-2.4L64.4 69a3 3 0 0 0-2.3-3.5l-20.2-4-1.3 6L58 70.7l-6.3 32.4-45.3-8.8L12.8 62l12.5 2.5.9-6-15.2-3A3 3 0 0 0 7.5 58L0 96.2a3 3 0 0 0 2.4 3.5l51.2 10h.4Z" fill="#F0C42E"/><path d="M59 9.5a2 2 0 0 1-2 2H19a2 2 0 0 1-2-2 2 2 0 0 1 2-2h38a2 2 0 0 1 2 2Zm-2 10a2 2 0 0 1-2 2H32a2 2 0 0 1-2-2 2 2 0 0 1 2-2h23a2 2 0 0 1 2 2Z" fill="#F0C52E"/></g><defs><clipPath id="a"><path fill="#fff" transform="translate(0 .5)" d="M0 0h136v164H0z"/></clipPath></defs></svg>